<svg width="32" height="32" viewBox="0 0 100 100" fill="none" xmlns="http://www.w3.org/2000/svg">
  <defs>
    <linearGradient id="gradient-primary" x1="0%" y1="0%" x2="100%" y2="100%">
      <stop offset="0%" stop-color="#77C9A4" />
      <stop offset="100%" stop-color="#548687" />
    </linearGradient>
  </defs>
  
  <circle cx="50" cy="50" r="45" fill="#A1EBD0" opacity="0.2"/>
  <circle cx="50" cy="50" r="38" fill="url(#gradient-primary)"/>
  
  <path d="M50 20 C50 20, 35 25, 35 40 C35 48, 40 52, 50 52 C60 52, 65 56, 65 64 C65 79, 50 84, 50 84" stroke="white" stroke-width="6" stroke-linecap="round" fill="none"/>
  
  <line x1="50" y1="15" x2="50" y2="28" stroke="white" stroke-width="4" stroke-linecap="round"/>
  <line x1="50" y1="72" x2="50" y2="85" stroke="white" stroke-width="4" stroke-linecap="round"/>
  
  <path d="M20 70 L30 60 L40 65 L50 45" stroke="#548687" stroke-width="3" stroke-linecap="round" stroke-linejoin="round" fill="none" opacity="0.6"/>
  
  <circle cx="20" cy="70" r="2" fill="#548687" opacity="0.8"/>
  <circle cx="30" cy="60" r="2" fill="#548687" opacity="0.8"/>
  <circle cx="40" cy="65" r="2" fill="#548687" opacity="0.8"/>
  <circle cx="50" cy="45" r="2" fill="#548687" opacity="0.8"/>
</svg> 